<?xml version="1.0" encoding="UTF-8" standalone="no"?>
<!-- Created with Inkscape (http://www.inkscape.org/) -->

<svg
   xmlns:dc="http://purl.org/dc/elements/1.1/"
   xmlns:cc="http://creativecommons.org/ns#"
   xmlns:rdf="http://www.w3.org/1999/02/22-rdf-syntax-ns#"
   xmlns:svg="http://www.w3.org/2000/svg"
   xmlns="http://www.w3.org/2000/svg"
   xmlns:sodipodi="http://sodipodi.sourceforge.net/DTD/sodipodi-0.dtd"
   xmlns:inkscape="http://www.inkscape.org/namespaces/inkscape"
   width="220.01695"
   height="219.9857"
   id="svg2"
   version="1.1"
   inkscape:version="0.48.4 r9939"
   sodipodi:docname="settings_dark.svg">
  <defs
     id="defs4" />
  <sodipodi:namedview
     id="base"
     pagecolor="#ffffff"
     bordercolor="#666666"
     borderopacity="1.0"
     inkscape:pageopacity="0.0"
     inkscape:pageshadow="2"
     inkscape:zoom="0.98994949"
     inkscape:cx="303.68069"
     inkscape:cy="94.699201"
     inkscape:document-units="px"
     inkscape:current-layer="layer1"
     showgrid="false"
     inkscape:window-width="1413"
     inkscape:window-height="652"
     inkscape:window-x="580"
     inkscape:window-y="643"
     inkscape:window-maximized="0"
     fit-margin-top="0"
     fit-margin-left="0"
     fit-margin-right="0"
     fit-margin-bottom="0" />
  <metadata
     id="metadata7">
    <rdf:RDF>
      <cc:Work
         rdf:about="">
        <dc:format>image/svg+xml</dc:format>
        <dc:type
           rdf:resource="http://purl.org/dc/dcmitype/StillImage" />
        <dc:title></dc:title>
      </cc:Work>
    </rdf:RDF>
  </metadata>
  <g
     inkscape:label="Layer 1"
     inkscape:groupmode="layer"
     id="layer1"
     transform="translate(0.00847624,-832.36717)">
    <path
       style="fill:#ecf0f1;fill-opacity:1;stroke:none"
       d="m 85.84375,832.375 c -1.512291,0.047 -3.202909,0.30585 -5.09375,0.8125 -24.202768,6.48511 0.972447,31.15279 -18.90625,46.40625 -19.878697,15.25346 -37.190475,-15.44961 -49.71875,6.25 -12.52827445,21.69961 22.708036,21.34531 19.4375,46.1875 -3.270536,24.84219 -37.2351121,15.39098 -30.75,39.59375 6.4851121,24.20277 31.152789,-0.97245 46.40625,18.90625 15.253461,19.87865 -15.418358,37.19045 6.28125,49.71875 21.699608,12.5283 21.345313,-22.708 46.1875,-19.4375 24.84219,3.2705 15.35973,37.204 39.5625,30.7187 24.20277,-6.4851 -0.97245,-31.1527 18.90625,-46.4062 19.8787,-15.25344 37.19048,15.4496 49.71875,-6.25 12.52827,-21.69961 -22.70804,-21.34531 -19.4375,-46.1875 3.27054,-24.84219 37.23511,-15.39098 30.75,-39.59375 -6.48511,-24.20277 -31.15279,0.97245 -46.40625,-18.90625 -15.25346,-19.8787 15.41836,-37.19048 -6.28125,-49.71875 -21.69961,-12.52827 -21.34531,22.70804 -46.1875,19.4375 C 97.411105,860.89122 103.68878,831.82067 85.84375,832.375 z m 24.15625,70 c 22.09139,0 40,17.90859 40,40 0,22.0914 -17.90861,40 -40,40 -22.09139,0 -40,-17.9086 -40,-40 0,-22.09141 17.90861,-40 40,-40 z m 0,5 c -19.329966,0 -35,15.67001 -35,35 0,19.33 15.670034,35 35,35 19.32997,0 35,-15.67 35,-35 0,-19.32999 -15.67003,-35 -35,-35 z m 0,10 c 13.80712,0 25,11.19288 25,25 0,13.80712 -11.19288,25 -25,25 -13.807123,0 -25,-11.19288 -25,-25 0,-13.80712 11.192877,-25 25,-25 z"
       id="path2989"
       inkscape:connector-curvature="0" />
  </g>
</svg>
